<?xml version="1.0" encoding="UTF-8"?>
<svg version="1.1" xmlns="http://www.w3.org/2000/svg" width="512" height="512">
<path d="M0 0 C2.75 2.1875 2.75 2.1875 4.75 5.1875 C4.92177775 7.94536415 4.98216238 10.59965524 4.9453125 13.35546875 C4.94106766 14.54768791 4.94106766 14.54768791 4.93673706 15.76399231 C4.92554705 18.30114838 4.90044491 20.83795072 4.875 23.375 C4.86496866 25.09569802 4.85584308 26.81640159 4.84765625 28.53710938 C4.82561161 32.75404243 4.79109006 36.97071125 4.75 41.1875 C5.8061381 41.18381283 6.86227619 41.18012566 7.95041847 41.17632675 C33.63901902 41.08756031 59.3275997 41.02181208 85.01632118 40.98025131 C97.43915886 40.95961904 109.86189528 40.93148559 122.28466797 40.88574219 C133.11133942 40.84589496 143.93793753 40.82007203 154.76468027 40.81114602 C160.49829903 40.80592773 166.23170798 40.79364875 171.96525955 40.76457977 C177.36113676 40.73744426 182.75671759 40.72905133 188.15265656 40.73506927 C190.13359818 40.73396821 192.11454964 40.72600336 194.09543228 40.7106781 C196.7999581 40.69077944 199.50336459 40.69556036 202.20791626 40.70648193 C202.99197456 40.69483057 203.77603286 40.6831792 204.5838505 40.67117476 C209.77826278 40.72788188 212.75883462 41.88085911 216.75 45.1875 C218.1674923 48.0224846 217.88081991 50.40098353 217.88701439 53.57287312 C217.88966622 54.23890205 217.89231804 54.90493099 217.89505023 55.59114262 C217.90276945 57.84481807 217.9033034 60.09843927 217.90390015 62.35212708 C217.90791303 63.97546214 217.91235096 65.5987962 217.9171797 67.22212905 C217.92917025 71.70017664 217.93479937 76.17821345 217.93936086 80.65627396 C217.94530748 85.47915427 217.95691958 90.30202161 217.96765137 95.12489319 C217.9921956 106.78009303 218.00680478 118.43529718 218.01971143 130.09051493 C218.02342167 133.38049259 218.02739503 136.67046983 218.0314641 139.96044707 C218.05669712 160.37574866 218.07875769 180.79105089 218.09119225 201.20636463 C218.09412211 205.93713699 218.09708375 210.66790933 218.10009766 215.39868164 C218.10084371 216.57454131 218.10158976 217.75040097 218.10235842 218.96189275 C218.11501944 238.02175333 218.14825147 257.08152078 218.18989949 276.14133779 C218.23227556 295.69403046 218.25588221 315.24667538 218.26111281 334.79941386 C218.26453167 345.78393501 218.27634283 356.76831058 218.30921555 367.75278664 C218.3371577 377.10520914 218.34824108 386.45745624 218.33702008 395.80991725 C218.33181859 400.58424397 218.33481651 405.35820303 218.35948563 410.13247681 C218.38186779 414.50048144 218.38132493 418.86785195 218.36228175 423.23586687 C218.35946617 424.81866675 218.36516621 426.40150864 218.38009469 427.98424063 C218.39911728 430.1318065 218.38747319 432.27709158 218.36803246 434.42460346 C218.36938898 435.6184992 218.37074551 436.81239493 218.37214315 438.04246932 C217.56822015 442.10642548 215.89494006 443.58555416 212.75 446.1875 C209.58034766 447.77232617 206.16902918 447.32049404 202.68893433 447.30775452 C201.42455337 447.30903615 201.42455337 447.30903615 200.13462937 447.31034368 C197.293996 447.3119983 194.45342095 447.3064774 191.61279297 447.30102539 C189.58296714 447.30074349 187.5531412 447.30090131 185.52331543 447.3014679 C179.99880779 447.30175575 174.4743217 447.29586089 168.94981909 447.28889394 C163.18156384 447.28265847 157.41330815 447.28205645 151.64505005 447.28086853 C140.71574436 447.27775579 129.78644863 447.26954316 118.85714734 447.25951904 C106.41719387 447.24835615 93.97723993 447.24284701 81.53728271 447.23782361 C55.94151627 447.2273605 30.34575869 447.20976215 4.75 447.1875 C4.77618408 448.24662598 4.80236816 449.30575195 4.8293457 450.39697266 C4.92016552 454.34402155 4.97736342 458.290979 5.0246582 462.23876953 C5.04973045 463.94400589 5.08379764 465.64913554 5.12719727 467.35400391 C5.18817566 469.81179174 5.21628112 472.26815361 5.23828125 474.7265625 C5.26408768 475.48305084 5.2898941 476.23953918 5.31648254 477.01895142 C5.31857614 481.01202066 4.92737985 483.47470651 2.40698242 486.65380859 C-0.32190589 489.25606927 -1.7194247 490.17821242 -5.48141098 490.20104027 C-17.74239184 489.28925435 -29.85899409 487.23530443 -42.00097656 485.35791016 C-44.60888805 484.95829859 -47.21685475 484.55906358 -49.82489014 484.16026306 C-56.14812402 483.19240773 -62.47052803 482.21923462 -68.79262283 481.24396922 C-73.93263757 480.4511073 -79.07291183 479.65994945 -84.21337128 478.86997604 C-85.69887537 478.64167463 -87.18437944 478.41337306 -88.66988349 478.18507135 C-89.40941905 478.07141526 -90.1489546 477.95775916 -90.91090032 477.84065895 C-104.86302098 475.69614307 -118.81414293 473.54518565 -132.76497456 471.39230268 C-145.51546495 469.42487183 -158.26723524 467.46587952 -171.01962498 465.51080115 C-184.13705914 463.49967346 -197.2535804 461.48268728 -210.36915183 459.45944631 C-217.72343855 458.32506595 -225.07806561 457.19301501 -232.43366241 456.06715775 C-238.69115597 455.10931749 -244.94776958 454.14595898 -251.20332363 453.17552949 C-254.39170936 452.68106769 -257.58054773 452.18996761 -260.77024841 451.70405006 C-264.23360554 451.17600809 -267.6953198 450.63824655 -271.15679932 450.09805298 C-272.65666299 449.87289062 -272.65666299 449.87289062 -274.18682694 449.64317954 C-289.13830278 447.27747852 -289.13830278 447.27747852 -292.97569156 443.4795571 C-294.65002214 440.4679932 -294.62831948 438.32585519 -294.63311005 434.88399601 C-294.64216669 433.57980876 -294.65122333 432.27562151 -294.66055441 430.93191344 C-294.65544987 429.48114299 -294.65005776 428.03037353 -294.64440918 426.5796051 C-294.6492963 425.04116127 -294.65548527 423.50272111 -294.66286707 421.96428722 C-294.67931246 417.73013574 -294.67693936 413.49616989 -294.6714921 409.26199758 C-294.66882756 404.69817069 -294.6833428 400.13439392 -294.69558716 395.57058716 C-294.71666744 386.62719122 -294.72118054 377.68386007 -294.71939927 368.74044222 C-294.71809301 361.47321849 -294.72188884 354.20601501 -294.72932434 346.93879509 C-294.73142347 344.84759853 -294.73352107 342.75640198 -294.73561716 340.66520542 C-294.73666069 339.6244477 -294.73770422 338.58368997 -294.73877937 337.51139414 C-294.75769205 317.81696394 -294.75662832 298.12257097 -294.74981004 278.42813545 C-294.74423319 260.39980014 -294.76506426 242.37160687 -294.79817051 224.34330476 C-294.83187928 205.84370871 -294.8470794 187.34418076 -294.84245348 168.84455341 C-294.84020602 158.45363926 -294.84549234 148.06285643 -294.87034607 137.67196846 C-294.89132284 128.82645461 -294.89498726 119.98114407 -294.87604648 111.13562197 C-294.86686638 106.62051945 -294.86581479 102.10579637 -294.88640213 97.59072304 C-294.90503076 93.45962049 -294.9007008 89.32921029 -294.87785631 85.19813477 C-294.87364991 83.70153906 -294.87793875 82.2048911 -294.89145225 80.70835049 C-294.90854205 78.67791192 -294.89196158 76.64727277 -294.87361908 74.61684513 C-294.87389146 73.48782656 -294.87416385 72.35880798 -294.87444448 71.19557673 C-294.04698376 67.20952926 -292.36360343 65.72616716 -289.25 63.1875 C-285.92486954 61.94160652 -285.92486954 61.94160652 -282.08355713 61.05813599 C-281.37992586 60.89101191 -280.67629458 60.72388784 -279.95134115 60.5516994 C-277.62257613 60.00305793 -275.28878388 59.48035432 -272.95410156 58.95751953 C-271.2915085 58.57126438 -269.62929482 58.18337303 -267.96744156 57.79394722 C-264.4810586 56.98036289 -260.99241826 56.17773397 -257.50141907 55.38419342 C-252.49612819 54.24624565 -247.49691614 53.08343277 -242.49890137 51.91400146 C-233.2361587 49.75063456 -223.96651944 47.6178358 -214.69559765 45.48983526 C-210.00925119 44.41358904 -205.32354395 43.33456617 -200.63775635 42.25588989 C-191.75306114 40.21102618 -182.86784464 38.1684377 -173.98241448 36.12677014 C-161.18308408 33.18565739 -148.3845967 30.24087997 -135.58611298 27.29608536 C-126.00706085 25.09214118 -116.42773281 22.88941082 -106.84777832 20.68939209 C-90.12388827 16.84798311 -73.40222816 12.99806555 -56.69202566 9.09748721 C-54.34002666 8.54873977 -51.98783141 8.000843 -49.63554764 7.45331764 C-48.88236779 7.27800495 -48.12918794 7.10269225 -47.35318446 6.92206705 C-45.86682526 6.57613736 -44.3804555 6.230253 -42.89407468 5.88441622 C-38.67933485 4.90320671 -34.46601895 3.91616246 -30.25374126 2.92443943 C-27.12509169 2.18952275 -23.99451603 1.46289256 -20.86425781 0.73486328 C-19.21069904 0.34223234 -19.21069904 0.34223234 -17.52373505 -0.05833054 C-5.20780431 -2.9043524 -5.20780431 -2.9043524 0 0 Z M4.75 63.1875 C4.75 77.0475 4.75 90.9075 4.75 105.1875 C9.66156982 105.20208252 14.57313965 105.21666504 19.63354492 105.23168945 C35.83863454 105.28196553 52.04362792 105.34839711 68.24862194 105.42321491 C78.07630021 105.46819259 87.90394208 105.50760271 97.73168945 105.53393555 C106.29692364 105.55689965 114.86204282 105.59027989 123.42718583 105.63620156 C127.96294606 105.66015521 132.49859224 105.67886994 137.03441429 105.68511391 C141.30341825 105.69115508 145.57213033 105.71111979 149.84102631 105.74177551 C151.40792376 105.75057128 152.97485933 105.75427514 154.54178047 105.75250816 C156.68173053 105.75085689 158.82078926 105.76754068 160.96061707 105.78877258 C162.15802615 105.79338155 163.35543524 105.79799051 164.58912945 105.80273914 C168.06839021 106.22625644 169.94987723 107.11885382 172.75 109.1875 C174.74299003 112.07349149 175.01294896 114.23182378 174.6875 117.6875 C174.60822266 118.81671875 174.60822266 118.81671875 174.52734375 119.96875 C173.38358365 123.23335168 171.61520673 124.30223566 168.75 126.1875 C165.57351208 126.69530869 165.57351208 126.69530869 161.9226532 126.70648193 C161.24867849 126.71398319 160.57470378 126.72148444 159.88030559 126.729213 C157.62911674 126.74946164 155.37893783 126.74139377 153.12768555 126.73339844 C151.51119492 126.74213505 149.89471294 126.75262115 148.27824402 126.76472473 C143.89431363 126.79259472 139.51066528 126.7959892 135.12665915 126.79500484 C130.54350699 126.79813309 125.96048202 126.82374946 121.37739563 126.84698486 C112.70065185 126.88755517 104.02398324 126.90788799 95.34715921 126.92095876 C85.46808274 126.93682531 75.58913426 126.97523948 65.710132 127.01555204 C45.39010559 127.09796519 25.07016049 127.14907194 4.75 127.1875 C4.75 141.0475 4.75 154.9075 4.75 169.1875 C9.66156982 169.20208252 14.57313965 169.21666504 19.63354492 169.23168945 C35.83863454 169.28196553 52.04362792 169.34839711 68.24862194 169.42321491 C78.07630021 169.46819259 87.90394208 169.50760271 97.73168945 169.53393555 C106.29692364 169.55689965 114.86204282 169.59027989 123.42718583 169.63620156 C127.96294606 169.66015521 132.49859224 169.67886994 137.03441429 169.68511391 C141.30341825 169.69115508 145.57213033 169.71111979 149.84102631 169.74177551 C151.40792376 169.75057128 152.97485933 169.75427514 154.54178047 169.75250816 C156.68173053 169.75085689 158.82078926 169.76754068 160.96061707 169.78877258 C162.15802615 169.79338155 163.35543524 169.79799051 164.58912945 169.80273914 C168.06839021 170.22625644 169.94987723 171.11885382 172.75 173.1875 C174.74299003 176.07349149 175.01294896 178.23182378 174.6875 181.6875 C174.63464844 182.4403125 174.58179688 183.193125 174.52734375 183.96875 C173.38358365 187.23335168 171.61520673 188.30223566 168.75 190.1875 C165.57351208 190.69530869 165.57351208 190.69530869 161.9226532 190.70648193 C161.24867849 190.71398319 160.57470378 190.72148444 159.88030559 190.729213 C157.62911674 190.74946164 155.37893783 190.74139377 153.12768555 190.73339844 C151.51119492 190.74213505 149.89471294 190.75262115 148.27824402 190.76472473 C143.89431363 190.79259472 139.51066528 190.7959892 135.12665915 190.79500484 C130.54350699 190.79813309 125.96048202 190.82374946 121.37739563 190.84698486 C112.70065185 190.88755517 104.02398324 190.90788799 95.34715921 190.92095876 C85.46808274 190.93682531 75.58913426 190.97523948 65.710132 191.01555204 C45.39010559 191.09796519 25.07016049 191.14907194 4.75 191.1875 C4.75 205.0475 4.75 218.9075 4.75 233.1875 C9.66156982 233.20208252 14.57313965 233.21666504 19.63354492 233.23168945 C35.83863454 233.28196553 52.04362792 233.34839711 68.24862194 233.42321491 C78.07630021 233.46819259 87.90394208 233.50760271 97.73168945 233.53393555 C106.29692364 233.55689965 114.86204282 233.59027989 123.42718583 233.63620156 C127.96294606 233.66015521 132.49859224 233.67886994 137.03441429 233.68511391 C141.30341825 233.69115508 145.57213033 233.71111979 149.84102631 233.74177551 C151.40792376 233.75057128 152.97485933 233.75427514 154.54178047 233.75250816 C156.68173053 233.75085689 158.82078926 233.76754068 160.96061707 233.78877258 C162.15802615 233.79338155 163.35543524 233.79799051 164.58912945 233.80273914 C168.06839021 234.22625644 169.94987723 235.11885382 172.75 237.1875 C174.74299003 240.07349149 175.01294896 242.23182378 174.6875 245.6875 C174.63464844 246.4403125 174.58179688 247.193125 174.52734375 247.96875 C173.38358365 251.23335168 171.61520673 252.30223566 168.75 254.1875 C165.57351208 254.69530869 165.57351208 254.69530869 161.9226532 254.70648193 C160.91169113 254.71773381 160.91169113 254.71773381 159.88030559 254.729213 C157.62911674 254.74946164 155.37893783 254.74139377 153.12768555 254.73339844 C151.51119492 254.74213505 149.89471294 254.75262115 148.27824402 254.76472473 C143.89431363 254.79259472 139.51066528 254.7959892 135.12665915 254.79500484 C130.54350699 254.79813309 125.96048202 254.82374946 121.37739563 254.84698486 C112.70065185 254.88755517 104.02398324 254.90788799 95.34715921 254.92095876 C85.46808274 254.93682531 75.58913426 254.97523948 65.710132 255.01555204 C45.39010559 255.09796519 25.07016049 255.14907194 4.75 255.1875 C4.75 269.0475 4.75 282.9075 4.75 297.1875 C9.66156982 297.20208252 14.57313965 297.21666504 19.63354492 297.23168945 C35.83863454 297.28196553 52.04362792 297.34839711 68.24862194 297.42321491 C78.07630021 297.46819259 87.90394208 297.50760271 97.73168945 297.53393555 C106.29692364 297.55689965 114.86204282 297.59027989 123.42718583 297.63620156 C127.96294606 297.66015521 132.49859224 297.67886994 137.03441429 297.68511391 C141.30341825 297.69115508 145.57213033 297.71111979 149.84102631 297.74177551 C151.40792376 297.75057128 152.97485933 297.75427514 154.54178047 297.75250816 C156.68173053 297.75085689 158.82078926 297.76754068 160.96061707 297.78877258 C162.15802615 297.79338155 163.35543524 297.79799051 164.58912945 297.80273914 C168.06839021 298.22625644 169.94987723 299.11885382 172.75 301.1875 C174.74299003 304.07349149 175.01294896 306.23182378 174.6875 309.6875 C174.63464844 310.4403125 174.58179688 311.193125 174.52734375 311.96875 C173.38358365 315.23335168 171.61520673 316.30223566 168.75 318.1875 C165.57351208 318.69530869 165.57351208 318.69530869 161.9226532 318.70648193 C160.91169113 318.71773381 160.91169113 318.71773381 159.88030559 318.729213 C157.62911674 318.74946164 155.37893783 318.74139377 153.12768555 318.73339844 C151.51119492 318.74213505 149.89471294 318.75262115 148.27824402 318.76472473 C143.89431363 318.79259472 139.51066528 318.7959892 135.12665915 318.79500484 C130.54350699 318.79813309 125.96048202 318.82374946 121.37739563 318.84698486 C112.70065185 318.88755517 104.02398324 318.90788799 95.34715921 318.92095876 C85.46808274 318.93682531 75.58913426 318.97523948 65.710132 319.01555204 C45.39010559 319.09796519 25.07016049 319.14907194 4.75 319.1875 C4.75 333.0475 4.75 346.9075 4.75 361.1875 C9.66156982 361.20208252 14.57313965 361.21666504 19.63354492 361.23168945 C35.83863454 361.28196553 52.04362792 361.34839711 68.24862194 361.42321491 C78.07630021 361.46819259 87.90394208 361.50760271 97.73168945 361.53393555 C106.29692364 361.55689965 114.86204282 361.59027989 123.42718583 361.63620156 C127.96294606 361.66015521 132.49859224 361.67886994 137.03441429 361.68511391 C141.30341825 361.69115508 145.57213033 361.71111979 149.84102631 361.74177551 C151.40792376 361.75057128 152.97485933 361.75427514 154.54178047 361.75250816 C156.68173053 361.75085689 158.82078926 361.76754068 160.96061707 361.78877258 C162.15802615 361.79338155 163.35543524 361.79799051 164.58912945 361.80273914 C168.06839021 362.22625644 169.94987723 363.11885382 172.75 365.1875 C174.74299003 368.07349149 175.01294896 370.23182378 174.6875 373.6875 C174.63464844 374.4403125 174.58179688 375.193125 174.52734375 375.96875 C173.38358365 379.23335168 171.61520673 380.30223566 168.75 382.1875 C165.57351208 382.69530869 165.57351208 382.69530869 161.9226532 382.70648193 C160.91169113 382.71773381 160.91169113 382.71773381 159.88030559 382.729213 C157.62911674 382.74946164 155.37893783 382.74139377 153.12768555 382.73339844 C151.51119492 382.74213505 149.89471294 382.75262115 148.27824402 382.76472473 C143.89431363 382.79259472 139.51066528 382.7959892 135.12665915 382.79500484 C130.54350699 382.79813309 125.96048202 382.82374946 121.37739563 382.84698486 C112.70065185 382.88755517 104.02398324 382.90788799 95.34715921 382.92095876 C85.46808274 382.93682531 75.58913426 382.97523948 65.710132 383.01555204 C45.39010559 383.09796519 25.07016049 383.14907194 4.75 383.1875 C4.75 397.0475 4.75 410.9075 4.75 425.1875 C67.78 425.1875 130.81 425.1875 195.75 425.1875 C195.75 305.7275 195.75 186.2675 195.75 63.1875 C132.72 63.1875 69.69 63.1875 4.75 63.1875 Z " fill="#1565C0" transform="translate(294.25,11.8125)"/>
<path d="M0 0 C5.34617921 2.62067608 7.0631375 5.61892699 9 11 C10.11178058 14.43984432 11.10901689 17.90785903 12.09448242 21.38574219 C12.38752762 22.4060704 12.68057281 23.42639862 12.98249817 24.47764587 C13.94475883 27.83275706 14.90031 31.1897357 15.85546875 34.546875 C16.52349888 36.8838922 17.19182285 39.22082543 17.86042786 41.55767822 C19.25781986 46.44565118 20.6519405 51.33454184 22.04370117 56.22412109 C23.83017704 62.49958032 25.62434827 68.77280816 27.42089367 75.04539108 C28.80066172 79.86569703 30.17660488 84.6870881 31.55135536 89.50882721 C32.21169446 91.82327771 32.87317964 94.13740153 33.5358181 96.45119476 C34.45897282 99.67699032 35.37703234 102.90419227 36.29370117 106.13183594 C36.56951019 107.09188034 36.84531921 108.05192474 37.12948608 109.0410614 C37.5016198 110.35730247 37.5016198 110.35730247 37.88127136 111.70013428 C38.09860522 112.46258327 38.31593908 113.22503227 38.53985882 114.01058578 C39 116 39 116 39 119 C39.66 119 40.32 119 41 119 C41.11247354 118.39455982 41.22494707 117.78911964 41.3408289 117.16533279 C42.52444523 111.00067782 44.01905635 104.99558095 45.74975586 98.96386719 C46.01832901 98.01619476 46.28690216 97.06852234 46.56361389 96.09213257 C47.44330366 92.99254401 48.32877506 89.89464557 49.21484375 86.796875 C49.83273853 84.62840628 50.45045725 82.4598874 51.06800842 80.2913208 C52.35897031 75.76179938 53.65297365 71.2331602 54.94897461 66.70507812 C56.60782371 60.90782204 58.25762121 55.10803375 59.9049902 49.30750656 C61.1765215 44.83504279 62.45354216 40.36416045 63.73214912 35.8937149 C64.34280313 33.75565696 64.9515895 31.61706466 65.55845451 29.47792816 C66.40690795 26.4898122 67.26291142 23.50395906 68.12084961 20.51855469 C68.36874237 19.63946442 68.61663513 18.76037415 68.87203979 17.85464478 C72.0909497 6.73146423 72.0909497 6.73146423 76.6875 2.5625 C80.29989609 0.85853958 82.12299782 0.71935558 85.97265625 1.15234375 C89.2899984 2.53936349 90.76380339 4.14716598 93 7 C94.46409772 10.70679295 95.41113754 14.51222152 96.375 18.375 C96.97410529 20.64518113 97.57572249 22.91470067 98.1796875 25.18359375 C98.48100586 26.32812012 98.78232422 27.47264648 99.09277344 28.65185547 C100.43883453 33.61953087 101.96439134 38.52579153 103.5 43.4375 C106.3565968 52.66122938 108.89867689 61.94810609 111.3684082 71.28198242 C113.83654233 80.54562475 116.59058747 89.70523937 119.421875 98.86328125 C121.38447308 105.2134862 123.21369632 111.59815391 125 118 C127.61992447 111.36762819 129.61744307 104.63906246 131.546875 97.77734375 C131.88116516 96.60023331 132.21545532 95.42312286 132.55987549 94.21034241 C133.62642415 90.45361934 134.68859415 86.69567904 135.75 82.9375 C137.13791333 78.02917547 138.52828077 73.12155844 139.921875 68.21484375 C140.2635672 67.0114032 140.6052594 65.80796265 140.95730591 64.5680542 C143.42714346 55.90972255 146.01814199 47.29355673 148.66799927 38.68885803 C151.15392493 30.58566246 153.3676886 22.42914286 155.4140625 14.203125 C156.90614076 8.59348463 158.04248042 4.50381083 163 1 C166.47147183 -0.03428955 169.49422808 0.12913946 173 1 C175.89578186 2.86317748 177.79091109 4.7611736 179 8 C178.68423687 14.89287813 176.69903323 21.43609852 174.875 28.0625 C174.56369141 29.2071875 174.25238281 30.351875 173.93164062 31.53125 C171.64983309 39.84125328 169.18214399 48.08357157 166.62646484 56.31274414 C164.41145476 63.49887852 162.42248577 70.73060069 160.5 78 C158.07370558 87.17442577 155.44034148 96.25452585 152.625 105.31640625 C150.41114473 112.50155261 148.42293641 119.73205237 146.5 127 C144.20540413 135.64224481 141.81997591 144.24774019 139.25 152.8125 C138.96833984 153.76705078 138.68667969 154.72160156 138.39648438 155.70507812 C135.17375402 166.29624685 135.17375402 166.29624685 130.6875 169.8125 C127.46924308 171.2345205 125.48777532 171.43597191 122 171 C118.98782268 169.57318171 117.34918271 168.64683474 115.74950027 165.68354321 C115.46520535 164.79565263 115.18091042 163.90776205 114.88800049 162.9929657 C114.56633156 162.01035452 114.24466263 161.02774334 113.91324615 160.01535606 C113.46118931 158.52275481 113.46118931 158.52275481 113 157 C112.58978733 155.67319686 112.58978733 155.67319686 112.17128754 154.31958961 C111.3500504 151.59127676 110.56643852 148.85449679 109.79199219 146.11254883 C109.49880096 145.08681763 109.20560974 144.06108643 108.90353394 143.00427246 C107.94754802 139.65625287 106.99716537 136.30667143 106.046875 132.95703125 C105.38033194 130.61852786 104.71343597 128.28012504 104.04620361 125.94181824 C102.30011215 119.81910243 100.55878666 113.69504131 98.81848145 107.57067871 C97.03813818 101.30866246 95.25324766 95.04794274 93.46875 88.78710938 C89.97473843 76.52599785 86.48561026 64.26350236 83 52 C80.61772612 58.07998654 78.71884614 64.19486781 76.96899414 70.48339844 C76.68237411 71.50226639 76.39575409 72.52113434 76.10044861 73.57087708 C75.48199893 75.76991852 74.86495973 77.96935703 74.24919319 80.16915131 C73.27368566 83.65030848 72.29227212 87.12974774 71.3089447 90.60870361 C68.51462781 100.49544303 65.72386711 110.38313741 62.9543457 120.27685547 C61.25698463 126.33878263 59.54681279 132.39696696 57.82815361 138.45288849 C57.17627303 140.75923322 56.5292263 143.06694988 55.88710213 145.37602997 C54.99031373 148.59897722 54.0773 151.81690579 53.16040039 155.03417969 C52.89897247 155.98905777 52.63754456 156.94393585 52.36819458 157.92774963 C50.00569016 166.10210593 50.00569016 166.10210593 46 169 C42.34711807 170.21762731 39.84245864 170.39075851 36 170 C29.09685649 166.21003886 28.16121256 160.19839854 26 153 C24.84109709 148.90956147 23.75775122 144.80190918 22.6875 140.6875 C20.45383109 132.23630249 18.09598599 123.84700357 15.5 115.5 C12.63774896 106.28820352 10.09108827 97.01630253 7.625 87.69140625 C5.73028219 80.5777559 3.68392624 73.52991281 1.5 66.5 C-1.42187147 57.09037457 -4.05328487 47.62149295 -6.57055664 38.09594727 C-8.09205841 32.33937347 -9.69516648 26.63075882 -11.4375 20.9375 C-12.93490802 15.67704053 -13.77864853 11.45053974 -13 6 C-9.08606917 1.05608737 -6.27104539 -0.60298513 0 0 Z " fill="#F6F8F9" transform="translate(56,181)"/>
</svg>
